<?xml version="1.0" encoding="utf-8"?>
<svg id="svg-svg-icon-sketch-ellipse-button" viewBox="0 0 20 20" xmlns="http://www.w3.org/2000/svg">
                            <path fill-rule="evenodd" clip-rule="evenodd" d="M17.385 2.6142C14.5022-.2698 8.929.8452 4.887 4.887.845 8.929-.2696 14.5008 2.6141 17.3857c2.884 2.884 8.4572 1.7692 12.4991-2.2727 4.0423-4.0422 5.1565-9.614 2.2718-12.4988zM3.3101 16.6897C.927 14.3056 1.8554 9.3532 5.6043 5.6043 9.3532 1.8555 14.3067.9269 16.689 3.31c2.3843 2.3843 1.4564 7.3366-2.2929 11.0858-3.7489 3.7488-8.7025 4.6773-11.0859 2.2939z" fill="var(--os-icon-outline-secondary, #333333)"></path><g fill="var(--os-icon-accent-primary, #1651B0)"><path d="M17 1.003c-.339 0-.683.086-.998.268-.955.552-1.283 1.774-.731 2.73.37.64 1.042.999 1.733.999.338 0 .682-.086.997-.268.955-.551 1.283-1.773.731-2.729-.37-.641-1.042-1-1.732-1zM3.997 4c-.339 0-.682.086-.997.268-.956.551-1.284 1.773-.731 2.73.369.64 1.041.999 1.732.999.339 0 .683-.086.997-.268.955-.552 1.282-1.774.731-2.73C5.359 4.359 4.687 4 3.997 4zM9.0015 8.2694c.315-.182.658-.268.997-.268.69 0 1.362.359 1.732.999.551.956.224 2.178-.731 2.73a1.983 1.983 0 01-.997.268c-.691 0-1.363-.359-1.732-.999-.553-.957-.225-2.179.731-2.73z"></path></g><g fill="var(--os-icon-fill-primary--static, #FFFFFF)"><path d="M16.9999 1.503c.534 0 1.032.287 1.3.749.2.347.253.751.149 1.137-.104.387-.351.71-.698.911-.228.132-.487.2-.747.2-.535 0-1.033-.286-1.3-.749-.2-.347-.254-.75-.15-1.137.104-.387.352-.709.698-.91.228-.131.487-.201.748-.201zM3.997 4.5c.535 0 1.032.286 1.3.749.413.715.167 1.634-.548 2.047-.229.131-.487.201-.749.201-.534 0-1.032-.287-1.3-.749-.2-.347-.254-.751-.15-1.137.105-.387.353-.71.7-.911.228-.13.485-.2.747-.2zM11.2991 9.2504a1.504 1.504 0 00-1.3-.749c-.262 0-.519.07-.747.2-.347.201-.595.524-.7.911-.104.386-.05.79.15 1.137.268.462.766.749 1.3.749.262 0 .52-.07.749-.201.715-.413.961-1.332.548-2.047z"></path></g>
                        </svg>