<?xml version="1.0" encoding="utf-8"?>
<svg id="svg-svg-icon-sketch-arc-button" viewBox="0 0 20 20" xmlns="http://www.w3.org/2000/svg">
                            <path d="M3.2899 14H2.252A8.0147 8.0147 0 012 12c0-4.4183 3.5817-8 8-8s8 3.5817 8 8a8.0156 8.0156 0 01-.252 2h-1.0379A7.001 7.001 0 0017 12c0-3.866-3.134-7-7-7s-7 3.134-7 7c0 .695.1013 1.3663.2899 2z" fill="var(--os-icon-outline-secondary, #333333)"></path><g fill="var(--os-icon-accent-primary, #1651B0)"><path d="M10 2.5c-1.105 0-2 .895-2 2s.895 2 2 2 2-.895 2-2-.895-2-2-2zM3 11.5c-1.105 0-2 .895-2 2s.895 2 2 2 2-.895 2-2-.895-2-2-2zM15 13.5c0-1.105.895-2 2-2s2 .895 2 2-.895 2-2 2-2-.895-2-2z"></path></g><g fill="var(--os-icon-fill-primary--static, #FFFFFF)"><path d="M10 3c.827 0 1.5.673 1.5 1.5S10.827 6 10 6s-1.5-.673-1.5-1.5S9.173 3 10 3zM3 12c.827 0 1.5.673 1.5 1.5S3.827 15 3 15s-1.5-.673-1.5-1.5S2.173 12 3 12zM18.5 13.5c0-.827-.673-1.5-1.5-1.5s-1.5.673-1.5 1.5.673 1.5 1.5 1.5 1.5-.673 1.5-1.5z"></path></g><path d="M8 13h1.5v1.5h1V13H12v-1h-1.5v-1.5h-1V12H8v1z" fill="var(--os-icon-outline-secondary, #333333)"></path>
                        </svg>