<?xml version="1.0" encoding="utf-8"?>
<svg id="svg-svg-icon-sketch-center-rectangle-button" viewBox="0 0 20 20" xmlns="http://www.w3.org/2000/svg">
                            <path fill-rule="evenodd" clip-rule="evenodd" d="M18 3H2v14h16V3zM3 16V4h14v12H3z" fill="var(--os-icon-outline-secondary, #333333)"></path><g fill="var(--os-icon-accent-primary, #1651B0)"><path d="M16.0007 1.2688A1.9875 1.9875 0 0116.998 1c.6911 0 1.3635.3593 1.7337 1.0002.5523.957.2245 2.1797-.7315 2.732A1.9868 1.9868 0 0117.002 5c-.6912 0-1.3626-.3584-1.7337-1.0002-.5523-.956-.2245-2.1787.7324-2.731zM9.0007 8.2688A1.9874 1.9874 0 019.998 8c.6911 0 1.3635.3593 1.7337 1.0002.5523.957.2245 2.1797-.7315 2.732A1.9872 1.9872 0 0110.002 12c-.6912 0-1.3626-.3584-1.7337-1.0002-.5523-.956-.2245-2.1787.7324-2.731z"></path></g><g fill="var(--os-icon-fill-primary--static, #FFFFFF)"><path d="M18.2982 2.2502c-.2664-.4623-.765-.7502-1.3007-.7502-.2606 0-.5202.0695-.7474.2018-.717.4133-.9628 1.332-.5495 2.048.2674.4632.766.7502 1.3008.7502.2615 0 .5201-.0695.7483-.2008a1.4926 1.4926 0 00.6984-.9109 1.4873 1.4873 0 00-.1499-1.138zM11.2982 9.2502c-.2664-.4622-.765-.7502-1.3007-.7502-.2606 0-.5202.0695-.7474.2018-.717.4133-.9628 1.332-.5495 2.048.2674.4632.766.7502 1.3008.7502.2615 0 .5201-.0695.7483-.2008a1.4926 1.4926 0 00.6984-.9109 1.4872 1.4872 0 00-.1499-1.138z"></path></g>
                        </svg>