<?xml version="1.0" encoding="utf-8"?>
<svg id="svg-svg-icon-sketch-circle-button" viewBox="0 0 20 20" xmlns="http://www.w3.org/2000/svg">
                            <path fill-rule="evenodd" clip-rule="evenodd" d="M19 10c0 4.9706-4.0294 9-9 9s-9-4.0294-9-9 4.0294-9 9-9 9 4.0294 9 9zm-9 8c4.4183 0 8-3.5817 8-8s-3.5817-8-8-8-8 3.5817-8 8 3.5817 8 8 8z" fill="var(--os-icon-outline-secondary, #333333)"></path><g fill="var(--os-icon-accent-primary, #1651B0)"><path d="M14 4c0-1.105.895-2 2-2s2 .895 2 2-.895 2-2 2-2-.895-2-2zM8 10c0-1.105.895-2 2-2s2 .895 2 2-.895 2-2 2-2-.895-2-2z"></path></g><g fill="var(--os-icon-fill-primary--static, #FFFFFF)"><path d="M17.5 4c0-.827-.673-1.5-1.5-1.5s-1.5.673-1.5 1.5.673 1.5 1.5 1.5 1.5-.673 1.5-1.5zM11.5 10c0-.827-.673-1.5-1.5-1.5s-1.5.673-1.5 1.5.673 1.5 1.5 1.5 1.5-.673 1.5-1.5z"></path></g>
                        </svg>