<?xml version="1.0" encoding="utf-8"?>
<svg id="svg-svg-icon-sketch-conic-button" viewBox="0 0 20 20" xmlns="http://www.w3.org/2000/svg">
                            <path d="M3.479 17.1437C5.4193 10.6754 7.6421 7.5 10 7.5s4.5806 3.1754 6.5211 9.6437l.9578-.2874C15.4194 9.9913 12.9756 6.5 10 6.5c-2.9755 0-5.4193 3.4912-7.4789 10.3563l.9578.2874z" fill="var(--os-icon-outline-secondary, #333333)"></path><g fill="var(--os-icon-accent-primary, #1651B0)"><path d="M10.0008 1C11.1042 1 12 1.8946 12 3s-.8958 2-1.9992 2C8.8958 5 8 4.1054 8 3s.8958-2 2.0008-2zM5 17c0-1.1054-.8958-2-1.9992-2C1.8958 15 1 15.8946 1 17s.8958 2 2.0008 2C4.1042 19 5 18.1054 5 17zM19 17c0-1.1054-.8958-2-1.9992-2C15.8958 15 15 15.8946 15 17s.8958 2 2.0008 2C18.1042 19 19 18.1054 19 17z"></path></g><g fill="var(--os-icon-fill-primary--static, #FFFFFF)"><path d="M10.0006 1.5c.8275 0 1.4994.671 1.4994 1.5s-.6719 1.5-1.4994 1.5C9.1719 4.5 8.5 3.829 8.5 3s.6719-1.5 1.5006-1.5zM4.5 17c0-.829-.6719-1.5-1.4994-1.5-.8287 0-1.5006.671-1.5006 1.5s.6719 1.5 1.5006 1.5C3.828 18.5 4.5 17.829 4.5 17zM18.5 17c0-.829-.6719-1.5-1.4994-1.5-.8287 0-1.5006.671-1.5006 1.5s.6719 1.5 1.5006 1.5c.8275 0 1.4994-.671 1.4994-1.5z"></path></g>
                        </svg>